<?xml version="1.0" encoding="utf-8"?>
<!-- Generator: Adobe Illustrator 22.0.0, SVG Export Plug-In . SVG Version: 6.00 Build 0)  -->
<svg version="1.1" id="Layer_1" xmlns="http://www.w3.org/2000/svg" xmlns:xlink="http://www.w3.org/1999/xlink" x="0px" y="0px"
	 viewBox="0 0 500 500" style="enable-background:new 0 0 500 500;" xml:space="preserve">
<style type="text/css">
	.st0{fill:#5D6BB2;}
</style>
<path class="st0" d="M472.4,359.1c-19.6-58.9-64.2-110.6-108.8-146.3c64.2-53.5,198-242.6-10.7-208.7
	c-91,14.3-224.8,101.7-251.6,201.6C87,178.9,71,152.1,54.9,127.1c-25-33.9-53.5-7.1-26.8,26.8C108.4,255.6,162,376.9,162,500
	c7.1-60.7-3.6-135.6-28.5-207c12.5,3.6,25,5.4,37.5,5.4c42.8,67.8,107,126.7,182,155.2C418.9,480.4,508.1,464.3,472.4,359.1z
	 M379.6,36.1c117.8-12.5-8.9,132-50,160.6c-39.3-25-85.6-46.4-133.8-41C229.8,112.8,311.8,45,379.6,36.1z M188.7,178.9
	c33.9-3.6,69.6,14.3,96.3,32.1c-26.8,12.5-57.1,19.6-85.6,21.4C154.8,232.4,145.9,182.4,188.7,178.9z M354.7,407.2
	c-53.5-16.1-103.5-58.9-140.9-103.5c30.3-5.4,58.9-17.8,87.4-33.9c10.7-5.4,19.6-12.5,28.5-19.6c32.1,30.3,64.2,69.6,78.5,114.2
	C420.7,412.6,385,416.1,354.7,407.2z"/>
</svg>
